<?xml version="1.0" encoding="UTF-8"?>
<svg version="1.1" viewBox="0 0 2048 1152" width="1280" height="1280" xmlns="http://www.w3.org/2000/svg">
<path transform="translate(1007,18)" d="m0 0h34l34 3 29 5 24 6 33 11 23 10 24 12 20 12 16 11 12 9 10 8 14 12 27 27 9 11 10 12 12 17 12 19 9 16 8 16 7 15 10 27 8 27 6 28 4 31 1 13v41l-3 31-4 25-8 32-11 32-9 20-8 17-12 21-14 21-9 12-13 16-22 24-13 12-10 9-17 13-18 13-27 16-26 13-28 11-6 2h-13l-8-4-4-6-1-3-1-124-3-17-5-15-8-14-8-9v-1l36-6 23-6 22-8 19-10 13-9 14-12 11-13 10-15 9-19 7-21 5-24 2-18 1-28-1-17-3-17-6-20-8-17-9-14-8-10-3-4 2-9 4-20v-30l-3-18-6-20-1-3-2-1h-15l-18 4-19 7-21 10-20 12-9 6-32-7-31-4-12-1h-39l-31 3-28 5-17 4-21-13-23-12-19-8-19-5-7-1h-13l-2 1-6 19-3 14-1 7v32l3 16 3 9-1 4-11 14-9 15-8 18-5 17-3 17-1 12v17l2 27 4 23 6 21 6 15 9 17 10 14 12 13 15 12 15 9 19 9 21 7 21 5 31 5v2l-5 5-7 10-7 16-4 18-12 5-15 4-8 1h-17l-15-3-16-8-8-6-8-7-11-15-9-13-9-10-12-9-13-6-8-2h-15l-9 3v6l4 6 20 14 10 11 10 15 10 18 7 16 7 10 9 9 13 8 13 5 14 3 7 1h34l25-3v76l-3 6-7 6-3 1h-13l-25-9-26-12-22-12-22-14-17-13-14-11-15-14-11-10-7-8-12-13-11-14-13-18-13-21-13-24-12-27-8-22-8-29-5-24-4-31-1-14v-41l3-30 4-24 6-25 8-26 11-28 10-21 12-21 16-24 12-16 11-13 11-12 22-22 11-9 12-10 17-12 19-12 18-10 22-11 28-11 29-9 27-6 27-4z"/>
<path transform="translate(525,798)" d="m0 0h42l26 3 25 6 14 7 1 1-1 11-10 43-3 3-8-1-21-5-17-2h-31l-14 2-15 5-10 6-10 9-9 14-6 16-4 18-2 23v20l2 24 5 22 7 16 6 9 6 7 10 7 13 5 11 2h28l16-2 1-64h-43l-2-2v-57l3-2h108l3 3v165l-9 6-18 8-19 6-21 4-8 1h-40l-23-3-23-6-18-8-15-10-12-11-8-9-9-14-9-19-6-20-4-19-2-18v-56l3-25 5-23 7-21 8-16 7-11 9-11 9-9 14-10 16-8 15-5 20-4z" fill="#010101"/>
<path transform="translate(954,810)" d="m0 0h63l3 3v116h92v-117l2-2h64l2 2v315l-3 2h-62l-3-2v-135h-92v134l-3 3h-63l-3-4v-312z"/>
<path transform="translate(1442,810)" d="m0 0h64l2 2v107l17-8 19-5 7-1h27l14 3 12 5 11 7 11 11 8 13 5 12 5 20 2 16v46l-3 25-4 17-6 16-8 13-10 11-13 8-15 5-13 2h-23l-19-3-18-6-15-8-6-5-3 13-3 3h-45l-3-4v-311zm93 151-16 4-12 6v98l4 3 14 5 11 2h15l8-2 6-3 7-8 4-12 2-14v-41l-3-14-4-10-8-9-9-4-4-1z" fill="#020202"/>
<path transform="translate(1211,912)" d="m0 0h65l2 2 1 141 2 11 3 5v2l4 2 9 3h16l15-4 12-6 1-154 2-2h64l2 2v212l-3 3h-42l-3-5-2-9-19 10-21 7-16 3h-29l-18-3-16-6-11-8-8-9-7-14-4-17-1-11v-152z"/>
<path transform="translate(808,849)" d="m0 0h63l2 1v61h46l3 2v53l-1 2-3 1h-45l1 91 4 10 9 6 10 2h24l2 2v47l-5 3-19 4-10 1h-12l-18-2-17-5-12-7-9-8-7-11-5-12-3-16v-105h-32l-4-3v-43l5-3 29-7h2v-63z" fill="#010101"/>
<path transform="translate(683,911)" d="m0 0h62l3 3v211l-4 4h-59l-5-3-1-4v-206l2-4z" fill="#030303"/>
<path transform="translate(708,817)" d="m0 0h13l11 4 6 4 5 4 6 9 3 9v17l-5 12-7 8-8 6-12 4h-11l-10-3-8-5-5-4-7-11-3-12 1-13 4-10 7-9 10-7z" fill="#020202"/>
</svg>
